<svg width="238" height="100" viewBox="0 0 238 100" fill="none" xmlns="http://www.w3.org/2000/svg">
<path d="M0 100H238V2.01168e-06H0V100Z" fill="white"/>
<path fill-rule="evenodd" clip-rule="evenodd" d="M93.907 68.8468C97.8318 65.194 101.563 61.2072 104.756 56.9109C107.518 53.1949 110.126 48.9091 111.521 44.4691C112.183 42.3643 112.584 40.1864 112.72 37.9839C113.024 33.0343 111.965 28.0584 109.708 23.6608C109.792 24.2944 109.915 24.984 110.084 25.7398C113.45 40.7973 103.92 51.5561 99.78 53.1028C95.6403 54.6495 94.5486 52.102 95.6631 48.9631C91.3987 52.4206 90.4323 55.1954 90.4323 55.1954L90.773 57.3334C95.6631 60.3132 93.8014 68.762 93.8014 68.762L93.907 68.8468Z" fill="#D4D0D9"/>
<path fill-rule="evenodd" clip-rule="evenodd" d="M101.234 29.4616C101.234 29.4616 100.03 38.3636 90.6138 41.7757C90.6138 41.7757 91.7743 47.8035 91.342 52.0113L91.455 52.8298C91.455 52.8298 93.9344 50.1687 96.4365 48.781C98.9386 47.3939 102.51 43.2997 103.442 38.6368C104.374 33.974 104.374 30.2893 101.234 29.4616Z" fill="#D4D0D9"/>
<path fill-rule="evenodd" clip-rule="evenodd" d="M78.2832 64.978C78.2832 64.978 72.2173 67.1909 61.6722 65.81L57.1328 64.7029L50.2865 60.3127L50.0901 57.4637C61.2848 68.1039 89.2974 61.2718 89.7567 42.9907C89.7567 42.9907 96.2554 59.6078 78.2832 64.978Z" fill="#D4D0D9"/>
<path fill-rule="evenodd" clip-rule="evenodd" d="M60.8173 90.9159C60.8578 90.9356 60.9027 90.9368 60.9432 90.9184C66.9648 88.2001 72.7722 84.8869 78.2541 81.2065C79.5018 80.369 80.7366 79.51 81.9572 78.6283C81.9664 78.4932 81.9707 78.4183 81.9707 78.4183C77.801 80.2628 66.1826 83.9284 66.7542 75.9622C67.9374 73.8917 73.3162 70.511 73.3162 70.511C68.8468 71.133 66.5725 72.7546 61.8409 74.8244C57.1099 76.8943 55.2347 72.9959 55.2347 72.9959L55.6203 75.1658L56.4959 78.2365C57.8228 84.8906 50.1924 84.0015 46.3002 82.0158C46.1061 82.3639 45.9293 82.7072 45.7678 83.0455C48.2011 84.548 50.6824 85.9792 53.2035 87.3196C54.6029 88.0632 56.0194 88.781 57.4537 89.4558C58.5369 89.9648 59.6384 90.4566 60.7547 90.8889L60.7866 90.9018L60.8173 90.9159Z" fill="#D4D0D9"/>
<path fill-rule="evenodd" clip-rule="evenodd" d="M28.5713 70.4915C32.6944 74.0927 37.1233 77.3967 41.6566 80.4091C40.91 72.4208 44.0003 69.3752 45.8061 65.351C47.6936 61.1431 49.6499 58.323 49.6499 58.323L47.9883 57.704C44.8255 59.2692 44.2594 62.8034 41.9845 63.5538C39.7102 64.3047 39.4142 62.144 39.4142 62.144L36.9809 64.8162C38.1088 69.2868 33.3686 72.2746 28.7469 70.4006C28.6868 70.4301 28.6303 70.4614 28.5713 70.4915Z" fill="#D4D0D9"/>
<path fill-rule="evenodd" clip-rule="evenodd" d="M12.4714 51.1752C12.8098 51.8285 13.1659 52.4757 13.5386 53.1143C13.9205 53.3298 14.2582 53.3636 14.2582 53.3636L16.3901 55.4512C18.9763 59.2667 22.8329 61.2113 27.2913 61.8026C31.7491 62.3939 37.6178 64.9187 37.6178 64.9187C37.6178 64.9187 41.1208 61.0744 43.4405 58.6638C45.7609 56.2525 48.6953 56.1617 48.6953 56.1617C47.6484 52.7041 48.5123 47.0982 48.6725 46.836C48.8316 46.5732 46.5149 45.2402 46.5149 45.2402C46.5149 45.2402 43.7819 53.1137 30.9539 54.6831C18.1253 56.2525 12.795 49.2079 12.795 49.2079C12.539 50.0068 12.4506 50.6527 12.4714 51.1752Z" fill="#D4D0D9"/>
<path fill-rule="evenodd" clip-rule="evenodd" d="M79.0171 69.8766C79.0171 69.8766 79.3695 75.9265 86.4092 74.8464L93.8013 68.7621C93.8013 68.7621 97.168 60.5282 89.9116 56.6384L83.5884 62.4157C83.5884 62.4157 83.4497 66.8937 79.0171 69.8766Z" fill="#D9AE80"/>
<path fill-rule="evenodd" clip-rule="evenodd" d="M55.8851 63.9853C55.8851 63.9853 54.2475 66.3511 54.293 70.7634C54.3384 75.1757 53.224 74.9258 53.224 74.9258C53.224 74.9258 45.6041 80.6687 41.578 75.8247C41.578 75.8247 42.3062 69.046 45.6949 64.315C49.0843 59.584 50.4486 59.6295 50.4486 59.6295C50.4486 59.6295 51.9045 62.7229 55.8851 63.9853Z" fill="#D9AE80"/>
<path fill-rule="evenodd" clip-rule="evenodd" d="M94.3315 10.7519C92.7651 10.3147 91.1362 10.0353 89.4574 9.93277C83.0944 9.54164 76.8179 10.9557 71.0223 13.5364C67.5838 15.0678 64.0716 17.11 61.109 19.4512L60.5613 19.8847L60.021 19.442C51.3523 12.3452 39.7185 8.82078 28.6178 10.9232C18.053 12.9242 9.89891 19.6563 5.88264 29.6334C4.94504 31.963 4.27331 35.0055 5.65423 37.3031C6.23447 38.2689 7.14751 39.0082 8.23862 39.3128L8.79675 39.4681L8.80474 39.535C9.71962 38.5066 10.7825 37.5033 11.9872 36.6676C12.4096 36.6043 20.3801 33.0738 24.0648 26.1593C27.7496 19.2449 28.0449 15.3097 29.3644 15.4233C30.6839 15.5369 27.4082 22.77 29.0685 29.0704C30.7294 35.3708 37.1661 43.0134 45.4455 43.3321C45.4455 43.3321 46.3782 45.9478 48.7661 47.2446L50.742 39.2839C50.742 39.2839 49.2407 34.1894 49.832 30.5502C50.4233 26.9109 51.5046 20.8733 55.1094 20.5417C58.7137 20.2108 64.9349 26.0464 64.9349 26.0464L71.8401 26.3386C71.8285 26.2705 71.8199 26.2048 71.807 26.1366L73.4218 25.8867C73.4218 25.8867 78.9719 17.9481 82.1341 18.1305C85.295 18.3122 85.8642 25.2266 86.3186 28.7978C86.7736 32.3689 86.5458 34.0519 86.5458 34.0519L88.7071 37.6003C88.7071 37.6003 104.508 25.398 94.3315 10.7519ZM48.3719 52.0216L48.1748 54.4089C48.3 54.4077 48.4578 54.3948 48.6383 54.3733C48.5039 53.685 48.4069 52.8972 48.3719 52.0216Z" fill="#6F6678"/>
<path fill-rule="evenodd" clip-rule="evenodd" d="M93.6155 10.5642C92.2709 10.2339 90.882 10.0202 89.4574 9.9324C83.0944 9.54128 76.8179 10.9554 71.0223 13.5367C67.5838 15.0674 64.0716 17.1102 61.109 19.4515L60.5613 19.8844L60.021 19.4423C51.3523 12.3449 39.7185 8.82104 28.6178 10.9228C18.053 12.9239 9.89891 19.6566 5.88264 29.6337C5.49397 30.5983 5.15134 31.6857 4.98126 32.7916C5.12064 32.8788 5.25941 32.9666 5.39818 33.0525C5.39818 33.0525 6.7177 35.4638 8.40071 32.7117C10.0837 29.9597 11.0097 21.956 16.7335 19.2992L18.0561 19.2581L18.4687 18.5249C18.4687 18.5249 23.8788 13.5035 33.7503 12.5481C43.122 11.6406 51.9608 16.6178 57.3856 20.9386C57.8516 21.1105 58.3293 21.3285 58.8064 21.5778L59.9528 21.4869L62.1362 23.2154C62.1362 23.2154 77.292 9.57198 95.3004 12.2755L95.2967 12.2687C95.223 12.1932 94.5685 11.5227 93.6155 10.5642Z" fill="#908699"/>
<path fill-rule="evenodd" clip-rule="evenodd" d="M48.7661 47.2444L48.3719 52.0215C48.4069 52.8977 48.5039 53.6848 48.6384 54.3738C53.2803 53.8279 75.3523 46.682 71.8402 26.3391L64.935 26.0468C64.935 26.0468 58.7138 20.2106 55.1095 20.5422C51.5046 20.8731 50.4233 26.9107 49.832 30.55C49.2407 34.1893 50.742 39.2843 50.742 39.2843L48.7661 47.2444Z" fill="#D9AE80"/>
<path d="M60.4414 91.6984C56.686 90.2438 49.8484 86.7894 42.3236 81.8871C42.2696 81.8588 42.218 81.8257 42.1701 81.787C35.9194 77.7044 29.2083 72.6277 23.4028 66.8732C16.1537 59.6874 9.25769 50.3973 8.00571 40.1482C6.80839 39.8148 5.66448 39.0055 4.91047 37.7505C3.46262 35.3417 3.91024 32.2096 5.07748 29.3096C9.23866 18.9733 17.69 12.1092 28.4567 10.0707C39.6459 7.9511 51.5603 11.3933 60.5709 18.7707C63.4083 16.5283 75.0162 8.17583 89.5107 9.06615C97.6599 9.56719 104.678 14.0409 109.061 20.8092C112.278 25.7778 113.967 31.8436 113.586 38.0372C113.449 40.2692 113.045 42.5146 112.348 44.7294C109.801 52.8362 102.753 61.9648 93.6111 70.2994C84.3026 78.7863 72.7327 86.5487 61.3004 91.7101C61.0161 91.8384 60.7029 91.8243 60.4414 91.6984ZM73.7919 44.7478C73.1269 44.566 71.9216 43.8489 71.6883 42.8431C71.3358 41.3222 76.0637 41.3038 75.7027 42.848C75.481 43.7979 74.4575 44.6624 73.7919 44.7478ZM20.6747 42.1984C20.0263 41.8533 18.9714 41.165 18.7884 40.2667C18.5803 39.2419 19.963 39.0411 21.1432 39.0614C24.8991 39.1265 23.7355 41.1226 22.1133 42.1744L22.2122 42.285C22.5302 42.6718 27.1765 48.1562 32.2311 44.5255C32.686 44.1976 33.3209 44.3014 33.6482 44.7564C33.9755 45.2114 33.8723 45.8456 33.4173 46.1729C31.4746 47.5692 29.5988 47.9548 27.9102 47.7933C24.4687 51.0249 18.4354 51.3552 16.5282 46.5364C13.9432 46.666 12.2344 45.1199 12.2265 45.1125C11.8046 44.741 11.7635 44.0982 12.135 43.6757C12.5064 43.2539 13.1499 43.2127 13.5718 43.5842C13.581 43.5922 16.6179 46.3497 20.6747 42.1984ZM64.8205 48.9587C64.5104 48.4902 64.6388 47.8596 65.1073 47.5495C65.5751 47.2395 66.2063 47.3678 66.5164 47.8357C68.1945 50.3666 71.7613 49.6077 73.0428 46.7132C73.41 45.8849 74.5741 45.9328 74.9069 46.7347L74.9094 46.7335C76.0809 49.5273 79.1688 49.3388 79.9566 48.0309C80.247 47.5495 80.8721 47.3948 81.3541 47.6846C81.8349 47.975 81.9902 48.6007 81.6998 49.0821C80.4595 51.1421 77.4373 51.5148 75.3183 50.2389C74.8283 49.9442 74.3691 49.558 73.965 49.0729C71.5323 52.1086 67.0267 52.2781 64.8205 48.9587ZM77.5957 39.6429C77.1739 40.0119 76.5322 39.9689 76.1632 39.5471C75.7942 39.1252 75.8366 38.4836 76.259 38.114C76.2688 38.1048 79.8074 34.9297 84.5298 37.7179C85.0142 38.0041 85.1739 38.6279 84.8884 39.1111C84.6028 39.595 83.979 39.7552 83.4952 39.4697C80.0518 37.4361 77.6031 39.6361 77.5957 39.6429ZM62.4719 40.6652C62.1066 41.0913 61.4649 41.1417 61.0388 40.7763C60.6121 40.4116 60.5623 39.77 60.927 39.3432C60.9375 39.3316 64.36 35.2287 70.1367 37.5368C70.658 37.7431 70.9128 38.3338 70.7059 38.8545C70.4995 39.3758 69.9095 39.6306 69.3882 39.4237C64.9752 37.6602 62.4787 40.6566 62.4719 40.6652ZM18.5551 46.0992C19.8556 48.7837 23.1872 48.5252 25.418 47.151C23.5992 46.3915 22.168 45.1592 21.3575 44.3499C20.3775 45.2077 19.4368 45.7621 18.5551 46.0992ZM31.9529 29.5914C31.7681 30.1213 31.1885 30.4007 30.6592 30.2165C30.1293 30.0317 29.8493 29.4527 30.0341 28.9228C30.0384 28.9105 31.509 24.5559 36.5101 25.0846C37.0689 25.1417 37.4754 25.6409 37.4176 26.199C37.3605 26.7571 36.862 27.1636 36.3032 27.1065C32.9114 26.7479 31.9554 29.5835 31.9529 29.5914ZM17.7925 28.6133C17.2559 28.7779 16.6879 28.477 16.5227 27.9404C16.3582 27.4043 16.659 26.8357 17.1951 26.6706C17.2067 26.6675 21.1162 25.4217 23.283 29.2943C23.5581 29.7842 23.3831 30.4044 22.8931 30.6789C22.4031 30.9539 21.783 30.7796 21.5079 30.289C20.1491 27.8611 17.7993 28.6109 17.7925 28.6133ZM8.69833 38.2251C9.29147 37.7806 10.7418 36.4082 11.3662 33.27C11.4958 32.6161 11.6149 31.9253 11.7402 31.2014C12.5285 26.6313 13.5325 20.8153 17.8171 18.6184C18.3163 18.3629 18.9272 18.5613 19.1826 19.0599C19.4374 19.559 19.2397 20.1706 18.7405 20.4254C14.7875 22.4486 14.2447 29.2353 13.3642 33.6599C12.655 37.2243 10.9155 39.0381 10.0037 39.7706C10.3869 43.0506 11.4024 46.2816 12.8976 49.426C13.2138 49.7981 13.5319 50.1542 13.8493 50.4943C18.5692 55.5397 23.9388 57.6716 28.9964 57.8005C34.3537 57.938 39.439 55.8363 43.0156 52.4899C43.4252 52.1074 44.0662 52.1289 44.4487 52.5378C44.8313 52.9467 44.8098 53.5884 44.4008 53.9709C40.4527 57.6642 34.8554 59.9821 28.9485 59.8311C24.7923 59.7242 20.4579 58.4022 16.3901 55.4513C22.5566 64.4951 32.1353 72.5258 40.9636 78.5487C40.6228 76.7103 40.535 74.1008 41.5334 70.9969C39.0442 65.3111 32.5319 63.9302 26.6546 62.6856C26.3236 62.615 25.9945 62.5456 25.6685 62.4756C25.1189 62.359 24.7677 61.8186 24.8844 61.2697C25.001 60.7195 25.5408 60.3689 26.0903 60.4856C29.8444 61.2857 33.919 62.0593 37.2783 63.8222C38.3595 61.635 41.3958 56.7782 47.4261 55.7313C46.9386 53.3164 47.0356 50.5625 47.5182 47.762C46.2128 46.9908 43.9115 44.8669 44.0582 39.5096C44.1012 37.9494 44.2191 36.5267 44.3339 35.144C44.7214 30.4732 45.0701 26.2696 42.1474 22.6647C41.7931 22.2294 41.8588 21.5896 42.2942 21.2353C42.7295 20.8816 43.3693 20.9473 43.723 21.3827C47.167 25.6304 46.7869 30.2159 46.3638 35.311C46.2466 36.7208 46.1268 38.1717 46.0888 39.5655C45.9893 43.1759 47.097 44.8565 47.9591 45.6142C48.0063 45.4158 48.0555 45.2175 48.1058 45.0192C48.4847 43.5308 48.9556 42.0523 49.4873 40.6284C49.2196 39.2309 48.1967 33.0803 49.5371 26.7068C50.2708 23.2192 51.8415 19.8397 55.2437 19.5247C56.7167 19.3884 58.2899 19.8992 59.7764 20.7533C51.1753 13.4797 39.649 10.0197 28.8306 12.0687C18.7424 13.9789 10.8603 20.388 6.96435 30.0661C6.06911 32.2894 5.56562 34.8971 6.65366 36.7073C7.13996 37.5165 7.90441 38.0562 8.69833 38.2251ZM49.658 56.2839L49.79 56.6977C52.127 63.4992 60.8128 64.43 60.838 64.4331C61.3968 64.497 61.7977 65.0011 61.7333 65.5598C61.67 66.118 61.1659 66.5189 60.6078 66.455C60.5832 66.4526 53.6694 65.7121 49.7673 60.8227C48.4515 62.3626 45.8106 65.7827 43.9207 70.3792C41.7507 75.6579 43.1728 79.3979 43.5879 80.2968C50.4777 84.7742 56.7573 88.0027 60.5101 89.542C61.1149 88.5148 62.0206 86.2128 60.3284 83.3884C59.602 82.1738 58.5637 81.0772 57.518 79.9714C56.896 79.3144 56.271 78.6543 55.6913 77.9617C50.9837 74.9125 50.5017 70.0691 50.4998 70.055C50.4409 69.4963 50.8455 68.9958 51.4037 68.9363C51.9618 68.8773 52.4629 69.2814 52.5224 69.8401C52.523 69.8444 52.5875 70.4965 52.9277 71.4372C52.9025 70.3909 53.0437 69.239 53.398 67.952C53.5454 67.4111 54.1029 67.0924 54.6438 67.2398C55.1842 67.3871 55.5035 67.9446 55.3561 68.4856C53.4557 75.4246 59.3325 77.7713 62.0722 82.3458C63.5507 84.8141 63.5071 87.0166 63.0644 88.6363C63.8528 88.2544 64.64 87.8596 65.4266 87.4544C63.897 85.9187 61.6933 82.7602 63.4912 78.4283C64.686 75.5486 67.3564 73.2276 70.8851 71.533C72.8187 70.6039 75.0181 69.8591 77.3734 69.3121C78.039 68.6495 80.1488 66.611 82.1744 65.324C82.6491 65.0232 83.2778 65.1638 83.5793 65.6384C83.8802 66.1137 83.7395 66.7424 83.2649 67.0439C82.5428 67.5026 81.8072 68.0668 81.1398 68.6231C82.1155 68.4899 83.1059 68.3886 84.1055 68.3186C84.6661 68.2811 85.1512 68.7054 85.1886 69.266C85.2255 69.826 84.8018 70.3111 84.2412 70.3485C80.042 70.6346 75.4761 71.5784 71.7607 73.3639C68.6728 74.8474 66.3617 76.819 65.3694 79.2081C63.8197 82.9438 66.2456 85.5374 67.322 86.4547C76.1865 81.6746 84.8362 75.5259 92.1006 68.924C92.5936 67.8372 95.0835 61.6823 90.1419 57.8195C87.8387 61.6731 83.9366 64.1648 79.3561 65.3584C78.8127 65.499 78.2588 65.173 78.1176 64.6302C77.977 64.0868 78.3031 63.5323 78.8465 63.3917C83.392 62.2073 87.194 59.6247 89.052 55.5219C90.8216 51.6131 90.8357 46.8723 89.6126 42.4471C88.4116 38.1005 85.8511 33.6102 82.2223 30.887C81.7735 30.5511 81.6826 29.9144 82.0197 29.4662C82.3549 29.0179 82.9923 28.9271 83.4399 29.2629C84.1491 29.7959 84.8288 30.394 85.4741 31.0467C85.3188 28.7159 84.9369 25.8214 84.2872 23.4329C83.6818 21.2052 82.8953 19.3982 82.0185 19.4448C79.8798 19.5578 76.6851 23.2235 75.0918 25.2289C75.75 25.3842 76.383 25.5739 76.9835 25.7974C77.5589 24.6382 78.6991 22.6033 80.0462 21.6129C82.934 19.4903 84.2793 24.0628 84.2836 24.0757C84.4444 24.6142 84.1374 25.181 83.5989 25.3418C83.0604 25.5021 82.4937 25.1957 82.3328 24.6572C82.3316 24.6517 81.7943 22.8514 81.2485 23.253C80.2341 23.9984 79.31 25.6624 78.8213 26.6546C79.0921 26.8118 79.3518 26.9782 79.5986 27.155C80.0561 27.4805 80.1629 28.1147 79.8381 28.5716C79.5127 29.029 78.8778 29.1358 78.4203 28.811C75.6628 26.845 71.2861 26.4962 67.9078 26.8173C66.9082 26.9119 65.919 27.0691 64.9685 27.2852C64.9237 27.2987 64.8782 27.3091 64.8316 27.3165C63.6042 27.6033 62.4443 27.9901 61.4103 28.4684C61.3519 28.5034 61.2924 28.5317 61.2304 28.5531C60.0091 29.1401 58.9739 29.8604 58.2303 30.7028C57.8582 31.1222 57.2172 31.1615 56.7972 30.79C56.3772 30.4185 56.3379 29.7769 56.7094 29.3569C57.41 28.5642 58.3095 27.8642 59.3496 27.2637C58.5324 26.3157 57.1177 24.9857 55.7356 25.1687C53.8561 25.4186 53.7197 29.5196 53.7197 29.5313C53.7001 30.0919 53.2291 30.5303 52.6685 30.5106C52.108 30.4904 51.6695 30.02 51.6898 29.4594C51.6898 29.4428 51.8716 23.633 55.4734 23.1547C57.9939 22.8201 60.2437 25.1515 61.2187 26.3488C61.7253 26.1394 62.2521 25.9485 62.7943 25.7772C61.0069 23.9443 57.9116 21.3164 55.4267 21.5466C53.1137 21.7609 52.0465 24.6541 51.5277 27.1206C50.751 30.8139 50.8179 34.428 51.042 36.9676C52.1122 34.735 53.2832 32.7917 54.3958 31.3794C54.7427 30.9374 55.3825 30.8606 55.8246 31.2081C56.2667 31.5557 56.3434 32.1955 55.9959 32.6376C53.4778 35.8372 51.2127 41.0717 50.0799 45.5208C49.1011 49.3652 48.7622 53.2586 49.658 56.2839ZM47.9885 57.7041C42.5177 58.5472 39.8639 63.097 39.0233 64.8789C40.3833 65.83 41.5758 67.0107 42.5152 68.512C44.6593 63.7669 47.4654 60.3481 48.6068 59.0629C48.3772 58.6343 48.1697 58.1824 47.9885 57.7041ZM72.8297 24.8347C74.0823 23.1891 78.8102 17.305 82.1284 17.4137C86.3657 17.5524 87.3647 28.2369 87.5372 31.4992C87.5771 32.2587 87.5931 32.9544 87.5845 33.5451C89.359 35.9889 90.7344 38.8784 91.5707 41.9055C92.3726 44.8067 92.6839 47.8436 92.383 50.7492C92.8976 50.2291 93.4993 49.7403 94.2011 49.3142C96.1666 48.1236 99.2907 44.9406 101.182 41.3093C103.004 37.8106 103.809 33.6832 101.532 29.9267C101.44 29.7732 101.34 29.6185 101.234 29.4619C100.92 28.9977 101.041 28.3671 101.504 28.0527C101.968 27.7383 102.599 27.8593 102.913 28.3235C103.037 28.5046 103.155 28.6888 103.268 28.8761C105.997 33.3787 105.096 38.2024 102.989 42.2487C100.92 46.2226 97.4775 49.7017 95.2523 51.05C92.7005 52.5961 91.8175 55.1965 91.5418 56.3349C95.2499 59.3012 95.5022 63.2763 95.0196 66.1726C102.582 58.7786 108.241 51.0144 110.406 44.1246C111.054 42.0645 111.429 39.9818 111.556 37.9181C111.909 32.1605 110.343 26.5269 107.357 21.9156C103.322 15.6846 96.877 11.5566 89.3909 11.0961C73.7833 10.137 61.6694 20.4776 61.2377 20.8509C60.978 21.0806 60.625 21.1573 60.302 21.0714C61.9586 22.1207 63.5919 23.606 65.0354 25.1963C67.5664 24.6744 70.2908 24.5393 72.8297 24.8347Z" fill="#1E003D"/>
<path d="M124.795 38H118.75L126.602 14.7273H134.091L141.943 38H135.898L130.432 20.5909H130.25L124.795 38ZM123.989 28.8409H136.625V33.1136H123.989V28.8409ZM150.006 28.0455V38H144.449V20.5455H149.733V23.75H149.926C150.313 22.6818 150.972 21.8447 151.903 21.2386C152.835 20.625 153.945 20.3182 155.233 20.3182C156.46 20.3182 157.525 20.5947 158.426 21.1477C159.335 21.6932 160.04 22.4583 160.54 23.4432C161.047 24.4205 161.297 25.5644 161.29 26.875V38H155.733V27.9659C155.741 26.9962 155.494 26.2386 154.994 25.6932C154.502 25.1477 153.816 24.875 152.938 24.875C152.354 24.875 151.839 25.0038 151.392 25.2614C150.953 25.5114 150.612 25.8712 150.369 26.3409C150.134 26.8106 150.013 27.3788 150.006 28.0455ZM164.73 38V20.5455H170.287V38H164.73ZM167.514 18.5114C166.734 18.5114 166.063 18.2538 165.503 17.7386C164.942 17.2159 164.662 16.5871 164.662 15.8523C164.662 15.125 164.942 14.5038 165.503 13.9886C166.063 13.4659 166.734 13.2045 167.514 13.2045C168.302 13.2045 168.973 13.4659 169.526 13.9886C170.086 14.5038 170.366 15.125 170.366 15.8523C170.366 16.5871 170.086 17.2159 169.526 17.7386C168.973 18.2538 168.302 18.5114 167.514 18.5114ZM173.824 38V20.5455H179.108V23.75H179.301C179.665 22.6894 180.278 21.8523 181.142 21.2386C182.006 20.625 183.036 20.3182 184.233 20.3182C185.445 20.3182 186.483 20.6288 187.347 21.25C188.21 21.8712 188.759 22.7045 188.994 23.75H189.176C189.502 22.7121 190.138 21.8826 191.085 21.2614C192.032 20.6326 193.15 20.3182 194.438 20.3182C196.089 20.3182 197.43 20.8485 198.46 21.9091C199.491 22.9621 200.006 24.4091 200.006 26.25V38H194.449V27.5227C194.449 26.6515 194.225 25.9886 193.778 25.5341C193.331 25.072 192.752 24.8409 192.04 24.8409C191.275 24.8409 190.672 25.0909 190.233 25.5909C189.801 26.0833 189.585 26.7462 189.585 27.5795V38H184.244V27.4659C184.244 26.6553 184.025 26.0152 183.585 25.5455C183.146 25.0758 182.566 24.8409 181.847 24.8409C181.362 24.8409 180.934 24.9583 180.562 25.1932C180.191 25.4205 179.9 25.7462 179.688 26.1705C179.483 26.5947 179.381 27.0947 179.381 27.6705V38H173.824ZM208.369 38.2955C207.256 38.2955 206.267 38.1098 205.403 37.7386C204.547 37.3598 203.869 36.7917 203.369 36.0341C202.877 35.2689 202.631 34.3106 202.631 33.1591C202.631 32.1894 202.801 31.3712 203.142 30.7045C203.483 30.0379 203.953 29.4962 204.551 29.0795C205.15 28.6629 205.839 28.3485 206.619 28.1364C207.4 27.9167 208.233 27.7689 209.119 27.6932C210.112 27.6023 210.911 27.5076 211.517 27.4091C212.123 27.303 212.563 27.1553 212.835 26.9659C213.116 26.7689 213.256 26.4924 213.256 26.1364V26.0795C213.256 25.4962 213.055 25.0455 212.653 24.7273C212.252 24.4091 211.71 24.25 211.028 24.25C210.294 24.25 209.703 24.4091 209.256 24.7273C208.809 25.0455 208.525 25.4848 208.403 26.0455L203.278 25.8636C203.43 24.803 203.82 23.8561 204.449 23.0227C205.085 22.1818 205.956 21.5227 207.062 21.0455C208.176 20.5606 209.513 20.3182 211.074 20.3182C212.188 20.3182 213.214 20.4508 214.153 20.7159C215.093 20.9735 215.911 21.3523 216.608 21.8523C217.305 22.3447 217.843 22.9508 218.222 23.6705C218.608 24.3902 218.801 25.2121 218.801 26.1364V38H213.574V35.5682H213.438C213.127 36.1591 212.729 36.6591 212.244 37.0682C211.767 37.4773 211.203 37.7841 210.551 37.9886C209.907 38.1932 209.18 38.2955 208.369 38.2955ZM210.085 34.6591C210.684 34.6591 211.222 34.5379 211.699 34.2955C212.184 34.053 212.57 33.7197 212.858 33.2955C213.146 32.8636 213.29 32.3636 213.29 31.7955V30.1364C213.131 30.2197 212.938 30.2955 212.71 30.3636C212.491 30.4318 212.248 30.4962 211.983 30.5568C211.718 30.6174 211.445 30.6705 211.165 30.7159C210.884 30.7614 210.616 30.803 210.358 30.8409C209.835 30.9242 209.388 31.053 209.017 31.2273C208.653 31.4015 208.373 31.6288 208.176 31.9091C207.987 32.1818 207.892 32.5076 207.892 32.8864C207.892 33.4621 208.097 33.9015 208.506 34.2045C208.922 34.5076 209.449 34.6591 210.085 34.6591ZM227.756 14.7273V38H222.199V14.7273H227.756ZM132.341 60.7045C132.265 59.8712 131.928 59.2235 131.33 58.7614C130.739 58.2917 129.894 58.0568 128.795 58.0568C128.068 58.0568 127.462 58.1515 126.977 58.3409C126.492 58.5303 126.129 58.7917 125.886 59.125C125.644 59.4508 125.519 59.8258 125.511 60.25C125.496 60.5985 125.564 60.9053 125.716 61.1705C125.875 61.4356 126.102 61.6705 126.398 61.875C126.701 62.072 127.064 62.2462 127.489 62.3977C127.913 62.5492 128.39 62.6818 128.92 62.7955L130.92 63.25C132.072 63.5 133.087 63.8333 133.966 64.25C134.852 64.6667 135.595 65.1629 136.193 65.7386C136.799 66.3144 137.258 66.9773 137.568 67.7273C137.879 68.4773 138.038 69.3182 138.045 70.25C138.038 71.7197 137.667 72.9811 136.932 74.0341C136.197 75.0871 135.14 75.8939 133.761 76.4545C132.39 77.0152 130.735 77.2955 128.795 77.2955C126.848 77.2955 125.152 77.0038 123.705 76.4205C122.258 75.8371 121.133 74.9508 120.33 73.7614C119.527 72.572 119.114 71.0682 119.091 69.25H124.477C124.523 70 124.723 70.625 125.08 71.125C125.436 71.625 125.924 72.0038 126.545 72.2614C127.174 72.5189 127.902 72.6477 128.727 72.6477C129.485 72.6477 130.129 72.5455 130.659 72.3409C131.197 72.1364 131.61 71.8523 131.898 71.4886C132.186 71.125 132.333 70.7083 132.341 70.2386C132.333 69.7992 132.197 69.4242 131.932 69.1136C131.667 68.7955 131.258 68.5227 130.705 68.2955C130.159 68.0606 129.462 67.8447 128.614 67.6477L126.182 67.0795C124.167 66.6174 122.58 65.8712 121.42 64.8409C120.261 63.803 119.686 62.4015 119.693 60.6364C119.686 59.197 120.072 57.9356 120.852 56.8523C121.633 55.7689 122.712 54.9242 124.091 54.3182C125.47 53.7121 127.042 53.4091 128.807 53.4091C130.61 53.4091 132.174 53.7159 133.5 54.3295C134.833 54.9356 135.867 55.7879 136.602 56.8864C137.337 57.9848 137.712 59.2576 137.727 60.7045H132.341ZM146.443 67.0455V77H140.886V53.7273H146.261V62.75H146.455C146.848 61.6742 147.492 60.8333 148.386 60.2273C149.288 59.6212 150.39 59.3182 151.693 59.3182C152.92 59.3182 153.989 59.5909 154.898 60.1364C155.807 60.6742 156.511 61.4356 157.011 62.4205C157.519 63.4053 157.769 64.5568 157.761 65.875V77H152.205V66.9659C152.212 65.9962 151.97 65.2386 151.477 64.6932C150.985 64.1477 150.292 63.875 149.398 63.875C148.814 63.875 148.299 64.0038 147.852 64.2614C147.413 64.5114 147.068 64.8712 146.818 65.3409C146.576 65.8106 146.451 66.3788 146.443 67.0455ZM169.389 77.3295C167.563 77.3295 165.988 76.9697 164.662 76.25C163.344 75.5227 162.329 74.4886 161.616 73.1477C160.912 71.7992 160.56 70.197 160.56 68.3409C160.56 66.5379 160.916 64.9621 161.628 63.6136C162.34 62.2576 163.344 61.2045 164.639 60.4545C165.935 59.697 167.461 59.3182 169.219 59.3182C170.461 59.3182 171.598 59.5114 172.628 59.8977C173.658 60.2841 174.548 60.8561 175.298 61.6136C176.048 62.3712 176.632 63.3068 177.048 64.4205C177.465 65.5265 177.673 66.7955 177.673 68.2273V69.6136H162.503V66.3864H172.503C172.495 65.7955 172.355 65.2689 172.082 64.8068C171.81 64.3447 171.435 63.9848 170.957 63.7273C170.488 63.4621 169.946 63.3295 169.332 63.3295C168.711 63.3295 168.154 63.4697 167.662 63.75C167.17 64.0227 166.779 64.3977 166.491 64.875C166.204 65.3447 166.052 65.8788 166.037 66.4773V69.7614C166.037 70.4735 166.177 71.0985 166.457 71.6364C166.738 72.1667 167.135 72.5795 167.651 72.875C168.166 73.1705 168.779 73.3182 169.491 73.3182C169.984 73.3182 170.431 73.25 170.832 73.1136C171.234 72.9773 171.579 72.7765 171.866 72.5114C172.154 72.2462 172.37 71.9205 172.514 71.5341L177.616 71.6818C177.404 72.8258 176.938 73.822 176.219 74.6705C175.507 75.5114 174.571 76.1667 173.412 76.6364C172.253 77.0985 170.912 77.3295 169.389 77.3295ZM186.068 53.7273V77H180.511V53.7273H186.068ZM199.457 59.5455V63.6364H188.446V59.5455H199.457ZM190.753 55.3636H196.31V71.5114C196.31 71.8523 196.363 72.1288 196.469 72.3409C196.582 72.5455 196.745 72.6932 196.957 72.7841C197.17 72.8674 197.423 72.9091 197.719 72.9091C197.931 72.9091 198.154 72.8902 198.389 72.8523C198.632 72.8068 198.813 72.7689 198.935 72.7386L199.776 76.75C199.51 76.8258 199.135 76.9205 198.651 77.0341C198.173 77.1477 197.601 77.2197 196.935 77.25C195.632 77.3106 194.514 77.1591 193.582 76.7955C192.658 76.4242 191.95 75.8485 191.457 75.0682C190.973 74.2879 190.738 73.3068 190.753 72.125V55.3636ZM210.264 77.3295C208.438 77.3295 206.863 76.9697 205.537 76.25C204.219 75.5227 203.204 74.4886 202.491 73.1477C201.787 71.7992 201.435 70.197 201.435 68.3409C201.435 66.5379 201.791 64.9621 202.503 63.6136C203.215 62.2576 204.219 61.2045 205.514 60.4545C206.81 59.697 208.336 59.3182 210.094 59.3182C211.336 59.3182 212.473 59.5114 213.503 59.8977C214.533 60.2841 215.423 60.8561 216.173 61.6136C216.923 62.3712 217.507 63.3068 217.923 64.4205C218.34 65.5265 218.548 66.7955 218.548 68.2273V69.6136H203.378V66.3864H213.378C213.37 65.7955 213.23 65.2689 212.957 64.8068C212.685 64.3447 212.31 63.9848 211.832 63.7273C211.363 63.4621 210.821 63.3295 210.207 63.3295C209.586 63.3295 209.029 63.4697 208.537 63.75C208.045 64.0227 207.654 64.3977 207.366 64.875C207.079 65.3447 206.927 65.8788 206.912 66.4773V69.7614C206.912 70.4735 207.052 71.0985 207.332 71.6364C207.613 72.1667 208.01 72.5795 208.526 72.875C209.041 73.1705 209.654 73.3182 210.366 73.3182C210.859 73.3182 211.306 73.25 211.707 73.1136C212.109 72.9773 212.454 72.7765 212.741 72.5114C213.029 72.2462 213.245 71.9205 213.389 71.5341L218.491 71.6818C218.279 72.8258 217.813 73.822 217.094 74.6705C216.382 75.5114 215.446 76.1667 214.287 76.6364C213.128 77.0985 211.787 77.3295 210.264 77.3295ZM221.386 77V59.5455H226.784V62.7273H226.966C227.284 61.5758 227.803 60.7197 228.523 60.1591C229.242 59.5909 230.08 59.3068 231.034 59.3068C231.292 59.3068 231.557 59.3258 231.83 59.3636C232.102 59.3939 232.356 59.4432 232.591 59.5114V64.3409C232.326 64.25 231.977 64.178 231.545 64.125C231.121 64.072 230.742 64.0455 230.409 64.0455C229.75 64.0455 229.155 64.1932 228.625 64.4886C228.102 64.7765 227.689 65.1818 227.386 65.7045C227.091 66.2197 226.943 66.8258 226.943 67.5227V77H221.386Z" fill="#1E003D"/>
</svg>
