<svg width="160" height="100" viewBox="0 0 160 100" fill="none" xmlns="http://www.w3.org/2000/svg">
<path fill-rule="evenodd" clip-rule="evenodd" d="M116.445 41.9502C117.869 42.9528 119.097 43.8172 119.798 46.3559L119.798 46.3557C120.815 50.0175 117.924 55.3655 112.531 57.0487C112.391 57.083 111.907 57.1886 111.303 57.2377C110.882 57.6951 110.396 58.0879 109.852 58.4095C109.804 58.4389 109.751 58.4635 109.697 58.4872C107.362 59.4478 104.593 59.762 101.89 59.762C98.5398 59.762 95.2915 59.2817 93.0904 58.9552C93.0043 58.9424 92.9171 58.9294 92.8295 58.9164C91.8963 58.7772 90.9148 58.6309 90.6656 58.6631L90.6508 58.6657C89.8502 58.8052 87.4112 59.2302 86.2018 57.2704C85.6951 56.4458 85.905 55.6912 86.0314 55.2368L86.0323 55.2338C86.0896 55.0325 86.1337 54.873 86.1254 54.7298C86.1196 54.6406 86.1295 54.1611 86.152 53.4042C86.2467 50.1877 86.531 40.3988 85.6399 36.2651C85.6391 36.2545 85.6424 36.2455 85.6399 36.2348C85.5028 36.1072 85.3856 35.9558 85.3216 35.7668C84.886 34.4896 84.1786 33.493 83.6018 33.3449C82.6625 33.1026 81.8596 32.4546 81.2794 31.4653C80.3833 29.936 80.168 27.8773 80.4789 26.771C80.6069 26.3218 80.9111 26.078 81.37 25.7106L81.377 25.7049C82.0403 25.1716 83.1442 24.284 83.4788 23.0544C84.0474 20.9704 86.96 20.4877 88.4995 20.3788C89.5375 17.9904 91.0537 15.5225 92.8217 15.682C94.7277 15.8729 95.4816 18.582 96.0917 21.3412C96.0988 21.373 96.1056 21.4038 96.1121 21.4333C96.1508 21.6084 96.1801 21.7406 96.2014 21.8141L96.4076 22.3525L96.4083 22.3545C97.1992 24.4249 97.6352 25.5664 97.2588 27.4216C97.2164 27.6351 97.1615 27.8732 97.1016 28.1302C96.9096 28.9639 96.6919 29.9671 96.6727 30.904C96.8149 30.994 96.9437 31.1077 97.0376 31.2583C97.085 31.3344 97.1366 31.4023 97.1914 31.467C102.993 33.8906 111.439 43.6474 112.779 50.8325C112.822 50.8137 112.855 50.7974 112.877 50.7859C113.735 50.3293 114.719 48.9146 114.747 47.7052C114.765 46.9049 114.353 46.567 114.04 46.3829C111.763 45.0353 111.388 44.5215 110.685 43.3849C109.573 41.588 110.006 38.5991 110.929 36.4323C111.958 34.0134 113.626 32.3753 115.506 31.9416C117.582 31.467 118.742 32.3638 119.13 33.3654C119.607 34.6017 119.01 36.0483 117.74 36.7299C116.309 37.5687 115.438 38.738 115.388 39.9196C115.354 40.7256 115.728 41.4456 116.443 41.9488L116.445 41.9502ZM83.3464 30.2903C83.5234 30.5922 83.816 30.9719 84.2042 31.0717L84.2042 31.0718C85.6713 31.4474 86.6122 32.8327 87.1475 33.9504C89.2755 33.268 91.9354 32.2516 94.277 30.8737C94.3019 29.6892 94.5704 28.5168 94.7764 27.6173L94.7774 27.613C94.7854 27.5782 94.7933 27.5438 94.8011 27.5098C94.847 27.3107 94.8895 27.1263 94.9228 26.9592C95.1655 25.7629 94.8979 25.0584 94.178 23.1772L93.9553 22.5946C93.9195 22.498 93.8497 22.2264 93.7649 21.8377C93.2413 19.4665 92.834 18.5197 92.5755 18.1483C92.016 18.6849 91.0684 20.337 90.4201 21.9498C90.2397 22.3965 89.8016 22.6911 89.3129 22.6919C87.662 22.6952 85.9131 23.1747 85.7818 23.6583C85.2466 25.6246 83.7046 26.8626 82.8767 27.5262C82.8502 27.5475 82.8246 27.5682 82.8002 27.5877C82.7788 27.605 82.7582 27.6214 82.7387 27.6367C82.6889 28.2258 82.826 29.4033 83.3464 30.2903ZM111.909 54.7852C111.912 54.7845 111.914 54.7841 111.914 54.7841L111.914 54.784C116.166 53.4525 118.118 49.1935 117.501 46.9704V46.9696C117.021 45.2374 116.325 44.7456 115.06 43.8553C113.688 42.8913 112.94 41.4201 113.009 39.8188C113.092 37.8313 114.389 35.9616 116.563 34.69C116.877 34.519 116.928 34.2588 116.903 34.1999C116.878 34.1844 116.617 34.0952 116.051 34.2245C114.941 34.4804 113.848 35.6449 113.127 37.3379C112.262 39.3696 112.24 41.385 112.718 42.1566C113.259 43.032 113.405 43.266 115.268 44.369C116.503 45.0974 117.164 46.3018 117.131 47.7567C117.085 49.7075 115.715 51.9437 114.008 52.8479C112.986 53.3937 111.951 53.4018 111.098 52.8749C110.785 52.6826 110.579 52.3578 110.544 51.9953C109.909 45.6654 101.378 35.5959 96.0736 33.5478C95.9531 33.502 95.8409 33.4349 95.742 33.3539C93.8017 34.3686 90.5749 35.9838 88.1669 36.8226C88.8868 41.5652 88.6374 50.1021 88.5385 53.4683C88.534 53.6353 88.5297 53.7868 88.5258 53.9214C88.5155 54.2838 88.5086 54.524 88.5111 54.6147C88.538 55.1195 88.4242 55.5324 88.3398 55.8387L88.3357 55.8536C88.3057 55.9558 88.2675 56.0966 88.265 56.1432C88.2704 56.1481 88.2768 56.1548 88.2845 56.1628C88.3872 56.2703 88.7269 56.6256 90.2691 56.347C90.3988 56.3241 90.5451 56.3126 90.718 56.3126C91.2648 56.3126 92.072 56.4263 93.4494 56.6317L93.468 56.6345C97.1937 57.185 104.088 58.2038 108.697 56.3535C109.12 56.0925 109.474 55.7734 109.774 55.3814C109.997 55.0918 110.344 54.9199 110.713 54.9167C111.288 54.9112 111.846 54.7978 111.909 54.7852ZM74.1747 24.771C74.1747 25.6293 73.6419 26.3649 72.8772 26.7168L76.1834 54.7689C76.2275 55.0659 76.3497 56.3514 75.3555 57.2932C74.4811 58.1238 73.1004 58.343 71.2518 57.9478C70.108 57.7032 67.4249 58.2359 64.8339 58.7522L64.811 58.7567C61.7994 59.356 58.5635 60 55.7147 60C53.7621 60 51.9942 59.6972 50.601 58.8741C48.4539 59.4428 45.2072 58.7088 43.332 56.5209C40.4818 53.1955 39.082 45.9816 40.6572 42.7373C41.0695 41.8847 41.6496 41.4772 42.3254 41.5198C43.4916 41.5952 43.8591 42.7038 44.5249 44.7167L44.5287 44.7282C45.2341 46.8566 46.2298 49.861 48.1498 52.1097C48.8431 43.3537 54.9277 27.1505 57.1978 21.3506C57.0847 21.0823 57.0182 20.7909 57.0182 20.4849C57.0182 19.8655 57.2776 19.3058 57.6949 18.8869C57.8187 18.724 57.9742 18.5988 58.1587 18.5211C58.4147 18.3665 58.7015 18.2511 59.0115 18.1938C61.5891 7.61856 63.9498 1.60115 66.0337 0.341045C66.6962 -0.0599039 67.2831 -0.0345372 67.6604 0.0546522C69.3727 0.463753 69.741 2.94961 69.7443 4.9846C70.9138 5.02061 72.544 5.17608 73.4541 5.72595C74.3975 6.29551 75.4307 8.09318 76.0492 9.30584C78.3033 9.25593 82.1428 9.39422 83.2799 10.926C84.6597 12.7803 83.6282 17.0924 82.2658 18.4499C81.0099 19.6904 78.1097 20.5275 75.247 21.2819L75.2354 21.285C74.6856 21.4284 74.2504 21.5419 74.0235 21.6207C73.563 21.7835 73.3028 22.4512 73.1872 22.9905C73.7824 23.3832 74.1747 24.0329 74.1747 24.771ZM67.3237 6.08725C67.4118 4.70033 67.283 3.18242 67.0485 2.51636L67.0485 2.51626C66.0984 3.4614 64.003 7.72355 61.2882 18.8895C61.3539 18.955 61.4129 19.0253 61.4702 19.0982C64.2183 20.1709 68.1077 21.6013 70.9055 22.2698C71.154 21.2862 71.7558 19.9288 73.2171 19.4149C73.4797 19.3224 73.9885 19.1866 74.6318 19.0164L74.6553 19.0102C76.2993 18.5767 79.6742 17.6866 80.5735 16.7989C81.3191 16.0551 81.856 13.0145 81.3623 12.3223C80.8692 11.8518 78.0257 11.5458 75.3758 11.6808C74.8928 11.7045 74.4406 11.4361 74.2353 11.0041C73.5271 9.51081 72.5778 7.97904 72.2021 7.72539C71.7116 7.42836 69.9246 7.28271 68.5589 7.33344C68.2214 7.36208 67.8956 7.21725 67.6612 6.97996C67.4259 6.74267 67.3021 6.41782 67.3237 6.08725ZM71.7532 55.6561C73.2045 55.9686 73.6251 55.6716 73.6941 55.6094L73.694 55.6094C73.8402 55.477 73.8285 55.1954 73.8256 55.1238C73.8252 55.1136 73.8249 55.1077 73.8253 55.107C73.8237 55.1013 73.8178 55.0678 73.8178 55.0604L70.4506 26.4673C68.1373 25.7237 62.6928 23.9726 59.1751 22.8229C54.7047 34.3217 49.9002 49.1698 50.5187 54.6775C50.571 55.1521 50.3258 55.6119 49.8977 55.8386C49.473 56.0661 48.9451 56.0153 48.5711 55.7069L48.1613 55.3714C44.8364 52.8568 43.3103 48.6119 42.3927 45.8584C42.2963 48.6936 43.3369 52.8977 45.1498 55.0113C46.617 56.7231 49.2968 56.953 50.2669 56.5095C50.4281 56.4358 50.5985 56.4007 50.7689 56.4007C51.0258 56.4007 51.2818 56.4825 51.4954 56.6445C53.9766 58.5249 59.7312 57.3777 64.3569 56.4547C67.5763 55.8124 70.1198 55.3091 71.7532 55.6561ZM2.21602 95.168C1.81602 95.168 1.50402 95.056 1.28002 94.832C1.07202 94.608 0.968018 94.296 0.968018 93.896V79.424C0.968018 78.992 1.08002 78.664 1.30402 78.44C1.54402 78.2 1.88002 78.08 2.31202 78.08H13.952C14.384 78.08 14.712 78.2 14.936 78.44C15.16 78.664 15.272 78.992 15.272 79.424V93.896C15.272 94.296 15.168 94.608 14.96 94.832C14.752 95.056 14.448 95.168 14.048 95.168C13.648 95.168 13.336 95.056 13.112 94.832C12.904 94.608 12.8 94.296 12.8 93.896V80.168H3.46402V93.896C3.46402 94.296 3.36002 94.608 3.15202 94.832C2.94402 95.056 2.63202 95.168 2.21602 95.168ZM20.2824 99.488C19.8984 99.488 19.6024 99.384 19.3944 99.176C19.1864 98.968 19.0824 98.664 19.0824 98.264V84.344C19.0824 83.944 19.1864 83.64 19.3944 83.432C19.6024 83.224 19.8904 83.12 20.2584 83.12C20.6424 83.12 20.9384 83.224 21.1464 83.432C21.3544 83.64 21.4584 83.944 21.4584 84.344V85.2619C21.743 84.7027 22.159 84.2367 22.7064 83.864C23.4584 83.336 24.3464 83.072 25.3704 83.072C26.4104 83.072 27.3144 83.32 28.0824 83.816C28.8664 84.312 29.4664 85.008 29.8824 85.904C30.3144 86.8 30.5304 87.88 30.5304 89.144C30.5304 90.376 30.3144 91.456 29.8824 92.384C29.4664 93.296 28.8744 94 28.1064 94.496C27.3384 94.976 26.4264 95.216 25.3704 95.216C24.3624 95.216 23.4824 94.96 22.7304 94.448C22.1982 94.0856 21.7902 93.6391 21.5064 93.1085V98.264C21.5064 98.664 21.3944 98.968 21.1704 99.176C20.9624 99.384 20.6664 99.488 20.2824 99.488ZM24.7704 93.344C25.4424 93.344 26.0264 93.184 26.5224 92.864C27.0184 92.544 27.4024 92.072 27.6744 91.448C27.9464 90.824 28.0824 90.056 28.0824 89.144C28.0824 87.768 27.7784 86.728 27.1704 86.024C26.5784 85.32 25.7784 84.968 24.7704 84.968C24.1144 84.968 23.5304 85.128 23.0184 85.448C22.5224 85.752 22.1384 86.216 21.8664 86.84C21.5944 87.464 21.4584 88.232 21.4584 89.144C21.4584 90.504 21.7624 91.544 22.3704 92.264C22.9784 92.984 23.7784 93.344 24.7704 93.344ZM33.9999 95.024C34.1759 95.12 34.3839 95.168 34.6239 95.168C34.9919 95.168 35.2719 95.088 35.4639 94.928C35.6719 94.768 35.8479 94.592 35.9919 94.4L41.8719 86.5528V93.992C41.8719 94.36 41.9679 94.648 42.1599 94.856C42.3519 95.064 42.6319 95.168 42.9999 95.168C43.3519 95.168 43.6159 95.064 43.7919 94.856C43.9839 94.648 44.0799 94.36 44.0799 93.992V84.416C44.0799 84.112 44.0319 83.864 43.9359 83.672C43.8559 83.48 43.7359 83.344 43.5759 83.264C43.4159 83.168 43.2159 83.12 42.9759 83.12C42.6239 83.12 42.3439 83.2 42.1359 83.36C41.9279 83.52 41.7439 83.704 41.5839 83.912L35.7039 91.7665V84.296C35.7039 83.912 35.6079 83.624 35.4159 83.432C35.2239 83.224 34.9519 83.12 34.5999 83.12C34.2479 83.12 33.9759 83.224 33.7839 83.432C33.5919 83.624 33.4959 83.912 33.4959 84.296V93.872C33.4959 94.176 33.5359 94.424 33.6159 94.616C33.7119 94.808 33.8399 94.944 33.9999 95.024ZM57.9465 95.216C56.8745 95.216 55.9305 95.008 55.1145 94.592C54.2985 94.16 53.6425 93.552 53.1465 92.768C52.6665 91.968 52.3705 91.024 52.2585 89.936H50.0985V93.944C50.0985 94.328 50.0025 94.632 49.8105 94.856C49.6185 95.064 49.3225 95.168 48.9225 95.168C48.5385 95.168 48.2425 95.064 48.0345 94.856C47.8265 94.632 47.7225 94.328 47.7225 93.944V84.344C47.7225 83.944 47.8265 83.64 48.0345 83.432C48.2425 83.224 48.5385 83.12 48.9225 83.12C49.3065 83.12 49.5945 83.224 49.7865 83.432C49.9945 83.64 50.0985 83.944 50.0985 84.344V88.016H52.2825C52.4425 86.976 52.7705 86.088 53.2665 85.352C53.7625 84.616 54.4025 84.056 55.1865 83.672C55.9865 83.272 56.9065 83.072 57.9465 83.072C59.1145 83.072 60.1305 83.32 60.9945 83.816C61.8585 84.312 62.5225 85.016 62.9865 85.928C63.4665 86.824 63.7065 87.896 63.7065 89.144C63.7065 90.072 63.5705 90.912 63.2985 91.664C63.0425 92.416 62.6585 93.056 62.1465 93.584C61.6345 94.112 61.0265 94.52 60.3225 94.808C59.6185 95.08 58.8265 95.216 57.9465 95.216ZM57.9465 93.344C58.6185 93.344 59.2025 93.184 59.6985 92.864C60.1945 92.544 60.5785 92.072 60.8505 91.448C61.1225 90.824 61.2585 90.056 61.2585 89.144C61.2585 87.768 60.9545 86.728 60.3465 86.024C59.7545 85.32 58.9545 84.968 57.9465 84.968C57.2745 84.968 56.6905 85.128 56.1945 85.448C55.6985 85.752 55.3145 86.216 55.0425 86.84C54.7705 87.464 54.6345 88.232 54.6345 89.144C54.6345 90.504 54.9385 91.544 55.5465 92.264C56.1545 92.984 56.9545 93.344 57.9465 93.344ZM69.4434 94.856C69.6674 95.064 69.9714 95.168 70.3554 95.168C70.7554 95.168 71.0514 95.064 71.2434 94.856C71.4514 94.632 71.5554 94.328 71.5554 93.944V85.232H74.8194C75.1554 85.232 75.4114 85.152 75.5874 84.992C75.7794 84.816 75.8754 84.568 75.8754 84.248C75.8754 83.608 75.5234 83.288 74.8194 83.288H65.8674C65.5474 83.288 65.2914 83.376 65.0994 83.552C64.9074 83.728 64.8114 83.96 64.8114 84.248C64.8114 84.904 65.1634 85.232 65.8674 85.232H69.1314V93.944C69.1314 94.328 69.2354 94.632 69.4434 94.856ZM78.7801 95.168C78.5401 95.168 78.3321 95.12 78.1561 95.024C77.9961 94.944 77.8681 94.808 77.7721 94.616C77.6921 94.424 77.6521 94.176 77.6521 93.872V84.296C77.6521 83.912 77.7481 83.624 77.9401 83.432C78.1321 83.224 78.4041 83.12 78.7561 83.12C79.1081 83.12 79.3801 83.224 79.5721 83.432C79.7641 83.624 79.8601 83.912 79.8601 84.296V91.7665L85.7401 83.912C85.9001 83.704 86.0841 83.52 86.2921 83.36C86.5001 83.2 86.7801 83.12 87.1321 83.12C87.3721 83.12 87.5721 83.168 87.7321 83.264C87.8921 83.344 88.0121 83.48 88.0921 83.672C88.1881 83.864 88.2361 84.112 88.2361 84.416V93.992C88.2361 94.36 88.1401 94.648 87.9481 94.856C87.7721 95.064 87.5081 95.168 87.1561 95.168C86.7881 95.168 86.5081 95.064 86.3161 94.856C86.1241 94.648 86.0281 94.36 86.0281 93.992V86.5528L80.1481 94.4C80.0041 94.592 79.8281 94.768 79.6201 94.928C79.4281 95.088 79.1481 95.168 78.7801 95.168ZM97.2948 98C97.4868 98.192 97.7428 98.288 98.0628 98.288C98.7508 98.288 99.0948 97.92 99.0948 97.184V95H108.215V97.184C108.215 97.536 108.303 97.808 108.479 98C108.655 98.192 108.911 98.288 109.247 98.288C109.935 98.288 110.279 97.92 110.279 97.184V94.232C110.279 93.848 110.175 93.56 109.967 93.368C109.775 93.176 109.495 93.08 109.127 93.08H108.407V84.656C108.407 84.224 108.287 83.888 108.047 83.648C107.807 83.408 107.471 83.288 107.039 83.288H101.111C100.663 83.288 100.319 83.408 100.079 83.648C99.8548 83.888 99.7428 84.224 99.7428 84.656V86.696C99.7428 87.784 99.6788 88.744 99.5508 89.576C99.4388 90.392 99.2548 91.12 98.9988 91.76C98.8163 92.2163 98.5891 92.6563 98.3171 93.08H98.1828C97.3988 93.08 97.0068 93.464 97.0068 94.232V97.184C97.0068 97.536 97.1028 97.808 97.2948 98ZM106.103 93.08H100.559C100.975 92.344 101.295 91.456 101.519 90.416C101.743 89.376 101.855 88.304 101.855 87.2V85.184H106.103V93.08ZM113.915 99.488C113.531 99.488 113.235 99.384 113.027 99.176C112.819 98.968 112.715 98.664 112.715 98.264V84.344C112.715 83.944 112.819 83.64 113.027 83.432C113.235 83.224 113.523 83.12 113.891 83.12C114.275 83.12 114.571 83.224 114.779 83.432C114.987 83.64 115.091 83.944 115.091 84.344V85.2619C115.376 84.7027 115.792 84.2367 116.339 83.864C117.091 83.336 117.979 83.072 119.003 83.072C120.043 83.072 120.947 83.32 121.715 83.816C122.499 84.312 123.099 85.008 123.515 85.904C123.947 86.8 124.163 87.88 124.163 89.144C124.163 90.376 123.947 91.456 123.515 92.384C123.099 93.296 122.507 94 121.739 94.496C120.971 94.976 120.059 95.216 119.003 95.216C117.995 95.216 117.115 94.96 116.363 94.448C115.831 94.0856 115.423 93.6391 115.139 93.1085V98.264C115.139 98.664 115.027 98.968 114.803 99.176C114.595 99.384 114.299 99.488 113.915 99.488ZM118.403 93.344C119.075 93.344 119.659 93.184 120.155 92.864C120.651 92.544 121.035 92.072 121.307 91.448C121.579 90.824 121.715 90.056 121.715 89.144C121.715 87.768 121.411 86.728 120.803 86.024C120.211 85.32 119.411 84.968 118.403 84.968C117.747 84.968 117.163 85.128 116.651 85.448C116.155 85.752 115.771 86.216 115.499 86.84C115.227 87.464 115.091 88.232 115.091 89.144C115.091 90.504 115.395 91.544 116.003 92.264C116.611 92.984 117.411 93.344 118.403 93.344ZM129.029 99.248C129.221 99.408 129.461 99.488 129.749 99.488C130.069 99.488 130.325 99.424 130.517 99.296C130.725 99.168 130.909 98.92 131.069 98.552L137.069 84.752C137.197 84.464 137.237 84.2 137.189 83.96C137.157 83.704 137.053 83.504 136.877 83.36C136.717 83.2 136.493 83.12 136.205 83.12C135.869 83.12 135.605 83.192 135.413 83.336C135.221 83.464 135.053 83.712 134.909 84.08L131.575 92.2075L128.285 84.08C128.141 83.728 127.981 83.48 127.805 83.336C127.629 83.192 127.389 83.12 127.085 83.12C126.733 83.12 126.453 83.2 126.245 83.36C126.037 83.504 125.917 83.704 125.885 83.96C125.853 84.216 125.893 84.488 126.005 84.776L130.267 94.6914L128.861 97.856C128.749 98.144 128.701 98.408 128.717 98.648C128.749 98.904 128.853 99.104 129.029 99.248ZM140.939 95.168C140.555 95.168 140.251 95.056 140.027 94.832C139.819 94.608 139.715 94.296 139.715 93.896V84.656C139.715 84.224 139.827 83.888 140.051 83.648C140.291 83.408 140.635 83.288 141.083 83.288H147.323C147.691 83.288 147.955 83.368 148.115 83.528C148.291 83.688 148.379 83.928 148.379 84.248C148.379 84.568 148.291 84.816 148.115 84.992C147.955 85.152 147.691 85.232 147.323 85.232H142.139V93.896C142.139 94.744 141.739 95.168 140.939 95.168ZM151.962 94.736C152.618 95.056 153.354 95.216 154.17 95.216C154.826 95.216 155.41 95.104 155.922 94.88C156.434 94.656 156.858 94.336 157.194 93.92C157.401 93.6665 157.569 93.3854 157.698 93.0768V93.944C157.698 94.328 157.802 94.632 158.01 94.856C158.218 95.064 158.498 95.168 158.85 95.168C159.218 95.168 159.498 95.064 159.69 94.856C159.882 94.632 159.978 94.328 159.978 93.944V87.776C159.978 86.688 159.81 85.8 159.474 85.112C159.138 84.424 158.618 83.912 157.914 83.576C157.226 83.24 156.346 83.072 155.274 83.072C154.666 83.072 154.018 83.144 153.33 83.288C152.642 83.432 151.946 83.672 151.242 84.008C150.986 84.104 150.802 84.248 150.69 84.44C150.594 84.632 150.546 84.832 150.546 85.04C150.562 85.232 150.626 85.416 150.738 85.592C150.85 85.752 151.002 85.856 151.194 85.904C151.386 85.952 151.618 85.912 151.89 85.784C152.482 85.48 153.05 85.264 153.594 85.136C154.154 85.008 154.69 84.944 155.202 84.944C156.082 84.944 156.714 85.144 157.098 85.544C157.482 85.944 157.674 86.6 157.674 87.512V88.136H156.858C155.13 88.136 153.754 88.248 152.73 88.472C151.722 88.68 150.994 89.04 150.546 89.552C150.114 90.048 149.898 90.728 149.898 91.592C149.898 92.28 150.082 92.896 150.45 93.44C150.818 93.984 151.322 94.416 151.962 94.736ZM157.674 89.624V90.272C157.674 90.896 157.538 91.448 157.266 91.928C157.01 92.408 156.658 92.792 156.21 93.08C155.762 93.352 155.242 93.488 154.65 93.488C153.914 93.488 153.338 93.304 152.922 92.936C152.506 92.552 152.298 92.056 152.298 91.448C152.298 90.984 152.434 90.624 152.706 90.368C152.994 90.096 153.474 89.904 154.146 89.792C154.818 89.68 155.73 89.624 156.882 89.624H157.674Z" fill="white"/>
</svg>
